HIERARCHY
ROOT Hips
{
  OFFSET 25.9691 98.9511 -154.846
  CHANNELS 6 Xposition Yposition Zposition Zrotation Xrotation Yrotation
  JOINT RightUpLeg
  {
    OFFSET -8.9458 -8.66707 0.101652
    CHANNELS 3 Zrotation Xrotation Yrotation
    JOINT RightLeg
    {
      OFFSET 0 -44.4227 1.3727
      CHANNELS 3 Zrotation Xrotation Yrotation
      JOINT RightFoot
      {
        OFFSET 0.253549 -42.0924 -1.46059
        CHANNELS 3 Zrotation Xrotation Yrotation
        JOINT RightToes
        {
          OFFSET 0.04 -4.41509 8.4991
          CHANNELS 3 Zrotation Xrotation Yrotation
          End Site
          {
            OFFSET -0.08 -0.137448 9.77979
          }
        }
      }
    }
  }
  JOINT Spine
  {
    OFFSET 0 11.8905 0
    CHANNELS 3 Zrotation Xrotation Yrotation
    JOINT Spine1
    {
      OFFSET 0 25.6574 0.127663
      CHANNELS 3 Zrotation Xrotation Yrotation
      JOINT HEad
      {
        OFFSET 0 8.73416 0.011341
        CHANNELS 3 Zrotation Xrotation Yrotation
        End Site
        {
          OFFSET -0.29 12.7742 2.51395
        }
      }
      JOINT LeftShoulder1
      {
        OFFSET 8.99 -0.362252 -0.22
        CHANNELS 3 Zrotation Xrotation Yrotation
        JOINT LeftArm
        {
          OFFSET 10.2827 -0.00338 0.322123
          CHANNELS 3 Zrotation Xrotation Yrotation
          JOINT LeftForeArm
          {
            OFFSET 32.7669 0.099144 -1.42434
            CHANNELS 3 Zrotation Xrotation Yrotation
            JOINT LeftHand
            {
              OFFSET 27.5643 0.085362 1.02216
              CHANNELS 3 Zrotation Xrotation Yrotation
              End Site
              {
                OFFSET 16.7443 -0.6 1.50291
              }
            }
          }
        }
      }
      JOINT RightShoulder
      {
        OFFSET -8.99 -0.362252 -0.22
        CHANNELS 3 Zrotation Xrotation Yrotation
        JOINT RightArm
        {
          OFFSET -10.2827 -0.00338 0.322123
          CHANNELS 3 Zrotation Xrotation Yrotation
          JOINT RightForeArm
          {
            OFFSET -32.8971 0.099144 -1.42434
            CHANNELS 3 Zrotation Xrotation Yrotation
            JOINT RightHand
            {
              OFFSET -27.4921 0.085362 1.02216
              CHANNELS 3 Zrotation Xrotation Yrotation
              End Site
              {
                OFFSET -16.6312 -0.6 1.50291
              }
            }
          }
        }
      }
    }
  }
  JOINT LeftUpLeg
  {
    OFFSET 8.9458 -8.66707 0.101652
    CHANNELS 3 Zrotation Xrotation Yrotation
    JOINT LeftLeg
    {
      OFFSET 0 -44.4227 1.3727
      CHANNELS 3 Zrotation Xrotation Yrotation
      JOINT LeftFoot
      {
        OFFSET -0.253549 -42.0924 -1.46059
        CHANNELS 3 Zrotation Xrotation Yrotation
        JOINT LeftToes
        {
          OFFSET -0.04 -4.41509 8.4991
          CHANNELS 3 Zrotation Xrotation Yrotation
          End Site
          {
            OFFSET 0.08 -0.047448 9.77979
          }
        }
      }
    }
  }
}
MOTION
Frames:	19
Frame Time:	0.0166667
21.103 98.1533 -36.8675 2.47112 -2.11848 1.28012 -7.80787 -20.9948 -5.46242 18.2019 25.9945 -25.4008 17.4301 -9.63979 0.676937 20.2602 17.3898 -8.36399 -3.01083 2.73094 0.415274 0.642243 18.1645 -0.112283 1.72205 -10.7469 6.65686 -9.93923e-017 0 -0 -94.5664 -33.856 -20.1068 -21.1681 15.6119 -22.1148 0.368473 9.90896 -0.00117927 -1.17084 0.139138 -1.62856 85.5506 -39.9194 13.2736 24.0367 12.0864 2.90345 -0.369625 9.91382 0.00119887 3.83624 -6.34015 3.09813 -15.818 47.8245 31.7117 -2.17194 -8.07397 0.0029441 4.05641 -13.8652 -7.91199 
20.7476 98.1585 -35.7447 2.18921 -2.04978 1.52744 -7.67723 -20.3869 -6.30791 18.694 26.4631 -24.7132 17.382 -10.6324 0.827667 20.5447 16.8246 -8.12387 -2.16555 2.86841 0.388576 0.78373 18.2332 -0.0987492 1.65299 -10.7428 6.48883 3.97569e-016 -3.18055e-015 -3.97569e-016 -94.269 -34.5605 -19.2255 -21.1892 15.5604 -21.8881 0.368473 9.90896 -0.00117927 -1.60429 0.141932 -1.48628 86.7259 -39.7658 14.1867 23.8029 12.0503 2.64024 -0.369625 9.91382 0.00119887 4.85178 -7.79856 3.75687 -15.9378 50.7394 31.2174 -1.82171 -5.15955 0.0433083 10.0133 -14.6423 -9.26711 
20.4233 98.1387 -34.6709 1.90822 -1.96106 1.76538 -7.58587 -19.819 -7.07842 19.2649 26.8872 -24.1533 17.3039 -11.5935 0.971511 20.7892 16.2674 -7.8813 -1.26836 3.00293 0.337412 0.904484 18.3219 -0.0797193 1.53556 -10.7134 6.34599 2.98177e-016 -3.18055e-015 -0 -93.9748 -35.3259 -18.3437 -21.1896 15.5356 -21.8095 0.368473 9.90896 -0.00117927 -2.11593 0.144717 -1.30823 87.9769 -39.4276 15.2591 23.6145 12.0197 2.41651 -0.369625 9.91382 0.00119887 5.82938 -9.52543 4.38184 -15.9958 53.7902 30.7927 -1.47206 -2.25077 0.0860444 14.9029 -15.316 -10.3838 
20.1278 98.1007 -33.6383 1.61499 -1.9338 1.9516 -7.45375 -19.2079 -7.49347 19.9365 27.18 -23.9744 17.1883 -12.4258 1.09091 20.6359 15.8634 -7.64313 -0.344893 3.11571 0.257902 0.982615 18.529 -0.0532151 1.41534 -10.7464 6.29726 2.98177e-016 -6.36111e-015 -7.95139e-016 -93.7069 -36.1902 -17.5014 -21.1653 15.5287 -21.8453 0.368473 9.90896 -0.00117927 -2.54221 0.152927 -1.03963 89.1135 -38.8951 16.5029 23.4972 12.0004 2.25867 -0.369625 9.91382 0.00119887 6.6312 -11.33 4.58739 -16.2001 56.795 31.1693 -1.65114 0.523132 0.128941 16.2565 -15.3763 -10.6528 
19.8581 98.035 -32.6353 1.36828 -1.92741 2.07724 -7.35731 -18.6562 -7.7864 20.6196 27.5445 -23.885 17.1055 -13.2292 1.20821 20.3301 15.4468 -7.37165 0.499183 3.20192 0.167019 1.01048 18.7786 -0.0217063 1.26417 -10.8 6.33443 3.97569e-016 -6.36111e-015 -7.95139e-016 -93.3984 -37.0775 -16.603 -21.1515 15.5525 -22.0407 0.368473 9.90896 -0.00117927 -2.91735 0.161569 -0.760581 90.2292 -38.2445 17.9656 23.3719 11.9938 2.15651 -0.369625 9.91382 0.00119887 7.29318 -13.2175 4.53762 -16.8981 59.6469 32.4178 -1.81697 2.46692 0.154679 15.4567 -14.9106 -10.3142 
19.609 97.923 -31.6468 1.2471 -1.93052 2.09934 -7.36528 -18.2765 -8.10288 21.2191 28.2416 -23.6207 17.1666 -14.1236 1.35207 20.0797 14.8934 -7.04135 1.11033 3.24341 0.0761009 0.942633 19.0352 0.0165333 1.07446 -10.8975 6.49568 -1.98785e-016 0 -0 -92.9543 -37.951 -15.4981 -21.189 15.6366 -22.5339 0.368473 9.90896 -0.00117927 -3.20592 0.16683 -0.54677 91.3853 -37.5002 19.7773 23.1624 11.9977 2.07911 -0.369625 9.91382 0.00119887 7.80837 -15.1194 4.20345 -18.8461 62.1638 35.3188 -1.42928 2.40377 0.131664 12.4347 -13.5501 -9.21553 
19.3839 97.7995 -30.676 1.17623 -1.93685 2.07776 -7.40195 -17.9506 -8.41687 21.7373 29.0152 -23.3458 17.2503 -14.9507 1.48787 19.6544 14.2211 -6.62908 1.60561 3.26135 -0.00176642 0.871005 19.276 0.0507806 0.831366 -10.9316 6.71104 4.96962e-016 -6.36111e-015 -0 -92.4794 -38.7175 -14.3821 -21.2525 15.7176 -23.0136 0.368473 9.90896 -0.00117927 -3.45309 0.170608 -0.356679 92.5029 -36.7856 21.7066 22.8856 12.0288 2.11506 -0.369625 9.91382 0.00119887 8.17197 -17.0623 3.76843 -21.3474 64.2403 38.7193 -1.00297 1.64927 0.0987732 8.86668 -12.0935 -7.99271 
19.183 97.6951 -29.7197 1.09741 -1.93037 2.07101 -7.39145 -17.6012 -8.76935 22.1326 29.6863 -23.1518 17.23 -15.5383 1.57723 18.8317 13.2965 -6.03847 2.05355 3.27378 -0.046557 0.88586 19.4496 0.0687919 0.498472 -10.7652 6.92437 1.39149e-015 3.18055e-015 -0 -92.0911 -39.2558 -13.4631 -21.3247 15.7302 -23.1186 0.368473 9.90896 -0.00117927 -3.66668 0.174543 -0.171595 93.5396 -36.2843 23.5787 22.5176 12.1069 2.35545 -0.369625 9.91382 0.00119887 8.40329 -19.0799 3.44278 -23.1636 65.8999 40.9159 -0.95221 1.24292 0.0903001 6.80877 -11.2867 -7.22659 
19.0107 97.6042 -28.7818 1.03861 -1.92897 2.04011 -7.3914 -17.2182 -9.10252 22.4713 30.2772 -22.9929 17.2216 -16.0482 1.65655 17.8112 12.4465 -5.46775 2.44662 3.27208 -0.0677672 0.947881 19.6059 0.0764908 0.125205 -10.512 7.13109 -5.96354e-016 3.18055e-015 -0 -91.7401 -39.6281 -12.603 -21.4358 15.7234 -23.1334 0.368473 9.90896 -0.00117927 -3.92335 0.175596 0.00121797 94.5797 -35.8643 25.4347 22.102 12.2195 2.76249 -0.369625 9.91382 0.00119887 8.5314 -21.0777 3.1416 -24.624 67.0923 42.4789 -1.03977 0.836175 0.0886805 5.44013 -11.0108 -6.80202 
18.8769 97.5301 -27.8668 1.01013 -1.94904 1.96227 -7.4423 -16.7594 -9.36101 22.8041 30.7443 -22.8998 17.3677 -16.6146 1.76257 16.4106 12.0565 -5.08988 2.8043 3.25211 -0.0652538 1.0644 19.7897 0.0730353 -0.257963 -10.2449 7.29664 1.98785e-016 -3.18055e-015 -3.97569e-016 -91.4193 -39.8636 -11.7237 -21.614 15.7262 -23.2398 0.368473 9.90896 -0.00117927 -4.35074 0.169513 0.154805 95.7319 -35.477 27.2667 21.653 12.3596 3.32539 -0.369625 9.91382 0.00119887 8.59424 -22.9729 2.84608 -25.8449 67.7052 43.5473 -1.18791 0.430142 0.0881905 4.76492 -11.8127 -7.05452 
18.7661 97.477 -26.9688 1.00647 -1.97908 1.8473 -7.52158 -16.2441 -9.5799 23.1333 31.1062 -22.731 17.4705 -17.1477 1.85858 15.4688 11.8307 -4.85854 3.1143 3.21847 -0.0479203 1.18535 19.964 0.0666016 -0.624655 -9.9485 7.45575 -9.93923e-016 3.18055e-015 -1.19271e-015 -91.093 -39.9331 -10.8398 -21.8452 15.7281 -23.3862 0.368473 9.90896 -0.00117927 -4.80353 0.161583 0.306953 96.834 -35.0724 29.023 21.2315 12.5282 4.05501 -0.369625 9.91382 0.00119887 8.58362 -24.763 2.56601 -26.6072 67.8125 44.0435 -1.33312 0.0153798 0.0876327 4.28134 -12.4231 -7.24346 
18.6648 97.4469 -26.0807 1.02974 -2.01754 1.68722 -7.62952 -15.6678 -9.78594 23.5056 31.3782 -22.2533 17.2894 -17.6064 1.90963 16.2588 11.6799 -4.89014 3.37493 3.1735 -0.0277706 1.24734 20.106 0.0679726 -0.930661 -9.63349 7.64072 1.09332e-015 3.18055e-015 -5.96354e-016 -90.6986 -39.7739 -9.92196 -22.1381 15.7285 -23.6039 0.368473 9.90896 -0.00117927 -5.16607 0.156411 0.484831 97.7502 -34.5881 30.6638 20.8952 12.7196 4.95297 -0.369625 9.91382 0.00119887 8.50281 -26.4075 2.32635 -26.9072 67.4276 44.0644 -1.33302 -0.432912 0.082231 3.26258 -11.2201 -6.41703 
18.5777 97.4499 -25.2099 1.0673 -2.05097 1.51264 -7.73747 -15.0604 -9.94861 23.8262 31.5255 -21.7664 17.0903 -17.9792 1.94539 17.3267 11.3655 -4.87935 3.57386 3.1198 0.00463627 1.29723 20.2186 0.0686436 -1.2004 -9.2953 7.82391 1.98785e-016 -3.18055e-015 -0 -90.3166 -39.5132 -9.03048 -22.4519 15.7256 -23.8265 0.368473 9.90896 -0.00117927 -5.47711 0.1518 0.653342 98.4729 -34.0405 32.131 20.6636 12.944 6.03711 -0.369625 9.91382 0.00119887 8.36015 -27.9381 2.06561 -26.6835 66.5702 43.7205 -1.34684 -0.867538 0.0770025 2.37955 -9.80396 -5.5396 
18.5044 97.4991 -24.3611 1.09457 -2.06323 1.37346 -7.80827 -14.4413 -10.0466 23.9937 31.4853 -21.7115 17.2583 -18.2005 2.00361 16.7369 10.5084 -4.4185 3.69178 3.05919 0.0607105 1.38037 20.299 0.060059 -1.45027 -8.90217 7.96279 1.59028e-015 -9.54166e-015 1.98785e-016 -90.0009 -39.2801 -8.23472 -22.7412 15.714 -23.9603 0.368473 9.90896 -0.00117927 -5.71874 0.147277 0.77315 98.9237 -33.4391 33.3241 20.5891 13.2176 7.3778 -0.369625 9.91382 0.00119887 8.15801 -29.3983 1.72527 -25.8287 65.2762 43.2614 -1.56447 -1.27487 0.0765877 2.62096 -9.52066 -5.46102 
18.4473 97.587 -23.535 1.15044 -2.06079 1.2039 -7.87423 -13.8366 -10.0797 24.0907 31.3679 -21.4437 17.1988 -18.3911 2.02587 17.2532 9.43472 -3.94309 3.74802 2.99633 0.122535 1.43801 20.3415 0.0530897 -1.65847 -8.54618 8.13468 4.96962e-016 3.18055e-015 -1.98785e-016 -89.7246 -39.0161 -7.4494 -23.0285 15.7057 -24.1188 0.368473 9.90896 -0.00117927 -5.94532 0.142278 0.88414 99.1906 -32.7552 34.3444 20.6211 13.5106 8.82115 -0.369625 9.91382 0.00119887 7.88716 -30.7106 1.30885 -24.663 63.5005 42.5839 -1.75104 -1.579 0.0773367 2.64072 -9.56547 -5.48102 
18.4099 97.73 -22.7385 1.28805 -2.0367 0.939732 -7.96693 -13.2989 -10.0232 24.2026 31.2573 -19.993 15.9961 -18.6954 1.91349 23.2583 8.13446 -3.84656 3.75475 2.93675 0.171743 1.39921 20.3308 0.0603955 -1.77283 -8.3929 8.47083 1.39149e-015 6.36111e-015 -0 -89.4825 -38.6783 -6.60359 -23.3281 15.7088 -24.3965 0.368473 9.90896 -0.00117927 -6.22252 0.136005 1.03436 99.336 -31.9432 35.27 20.7376 13.8012 10.2208 -0.369625 9.91382 0.00119887 7.52551 -31.7967 0.723293 -23.657 61.107 41.7804 -1.62821 -1.74929 0.0740846 0.752915 -9.60039 -5.05508 
18.3888 97.8693 -21.9573 1.4402 -2.01497 0.626185 -8.05288 -12.7672 -9.92871 24.2359 31.127 -18.7786 14.9965 -18.9778 1.82445 27.8598 7.24884 -3.82556 3.71384 2.87962 0.221111 1.3458 20.2924 0.0680979 -1.90187 -8.18965 8.76563 -9.93923e-017 9.54166e-015 -3.97569e-016 -89.2766 -38.341 -5.73113 -23.6197 15.7275 -24.7556 0.368473 9.90896 -0.00117927 -6.49837 0.128692 1.15999 99.3453 -31.0501 36.0646 20.9252 14.0953 11.6202 -0.369625 9.91382 0.00119887 7.12361 -32.7012 0.204104 -22.4192 58.398 40.7242 -1.51649 -1.63642 0.0760077 -1.12223 -9.55657 -4.58902 
18.3843 97.9205 -21.1692 1.53481 -2.0296 0.290778 -8.10197 -12.1832 -9.85254 24.0706 31.0747 -19.4224 15.7482 -19.1506 1.95203 22.9522 7.67542 -3.59944 3.65153 2.82205 0.283151 1.36517 20.2562 0.0625287 -2.19379 -7.63607 8.75674 -9.93923e-017 -3.18055e-015 -3.97569e-016 -89.1081 -38.066 -4.81154 -23.8845 15.7837 -25.2577 0.368473 9.90896 -0.00117927 -6.75149 0.119267 1.19085 99.2325 -30.0914 36.7309 21.1611 14.3857 12.9937 -0.369625 9.91382 0.00119887 6.73314 -33.4521 0.0617717 -20.4431 55.7102 39.0525 -1.77294 -0.856054 0.0971186 -1.46259 -9.27646 -4.35041 
18.389 97.9763 -20.4041 1.63758 -2.0438 -0.0777066 -8.12855 -11.592 -9.75516 23.7897 30.9542 -20.3224 16.7407 -19.2146 2.09502 16.5901 8.63123 -3.49287 3.50701 2.77577 0.340287 1.36966 20.1937 0.0557361 -2.47684 -7.04241 8.74847 8.94531e-016 -3.18055e-015 9.93923e-017 -88.9525 -37.8501 -3.92254 -24.1307 15.8316 -25.6998 0.368473 9.90896 -0.00117927 -6.95595 0.110855 1.19418 98.9915 -29.1068 37.2371 21.4538 14.6903 14.402 -0.369625 9.91382 0.00119887 6.39413 -34.0327 0.0151672 -18.6398 52.7217 37.5345 -2.01068 -0.0826529 0.117762 -0.773897 -8.69088 -4.21244 
